<svg width="96" height="95" viewBox="0 0 96 95" fill="none" xmlns="http://www.w3.org/2000/svg">
<path d="M46.3833 77.2214C46.3833 76.3284 47.1073 75.6042 47.9997 75.6042C48.8932 75.6042 49.6169 76.3285 49.6169 77.2214C49.6169 78.1145 48.893 78.8386 47.9997 78.8386C47.1073 78.8386 46.3833 78.1146 46.3833 77.2214Z" fill="url(#paint0_linear_2_1433)" stroke="url(#paint1_linear_2_1433)"/>
<path d="M10.2541 68.1416H85.7461C90.8305 68.1416 94.9486 72.2295 94.9486 77.3096C94.9486 82.3897 90.8307 86.4775 85.7463 86.4775H10.2541C5.16933 86.4775 1.05176 82.3897 1.05176 77.3096C1.05176 72.2294 5.16933 68.1416 10.2541 68.1416ZM17.2652 77.2215C17.2652 80.3239 19.78 82.8396 22.8826 82.8396C25.9858 82.8396 28.5008 80.324 28.5008 77.2215C28.5008 74.119 25.986 71.6033 22.8826 71.6033C19.78 71.6033 17.2652 74.1191 17.2652 77.2215ZM42.3822 77.2215C42.3822 80.3239 44.897 82.8396 47.9996 82.8396C51.103 82.8396 53.6178 80.3239 53.6178 77.2215C53.6178 74.119 51.103 71.6033 47.9996 71.6033C44.897 71.6033 42.3822 74.1191 42.3822 77.2215ZM67.4994 77.2215C67.4994 80.3239 70.0142 82.8396 73.1172 82.8396C76.2202 82.8396 78.735 80.3239 78.735 77.2215C78.735 74.1191 76.2202 71.6033 73.1172 71.6033C70.0142 71.6033 67.4994 74.1191 67.4994 77.2215Z" fill="url(#paint2_linear_2_1433)" stroke="url(#paint3_linear_2_1433)"/>
<path d="M74.7344 77.2214C74.7344 78.1146 74.0103 78.8386 73.1172 78.8386C72.224 78.8386 71.5 78.1146 71.5 77.2214C71.5 76.3283 72.224 75.6042 73.1172 75.6042C74.0103 75.6042 74.7344 76.3283 74.7344 77.2214Z" fill="url(#paint4_linear_2_1433)" stroke="url(#paint5_linear_2_1433)"/>
<path d="M24.5 77.2214C24.5 78.1146 23.776 78.8386 22.8828 78.8386C21.9897 78.8386 21.2656 78.1146 21.2656 77.2214C21.2656 76.3283 21.9897 75.6042 22.8828 75.6042C23.776 75.6042 24.5 76.3283 24.5 77.2214Z" fill="url(#paint6_linear_2_1433)" stroke="url(#paint7_linear_2_1433)"/>
<path d="M27.3883 92.751H57.3643C57.7241 92.751 58.0729 93.0972 58.0729 93.5205C58.0729 93.9438 57.7241 94.29 57.3643 94.29H27.3883C27.0281 94.29 26.6797 93.9439 26.6797 93.5205C26.6797 93.0971 27.0281 92.751 27.3883 92.751Z" fill="url(#paint8_linear_2_1433)" stroke="url(#paint9_linear_2_1433)"/>
<path d="M63.8468 92.751H68.5915C68.9514 92.751 69.3001 93.0972 69.3001 93.5205C69.3001 93.9438 68.9514 94.29 68.5915 94.29H63.8468C63.4868 94.29 63.1382 93.9438 63.1382 93.5205C63.1382 93.0972 63.4869 92.751 63.8468 92.751Z" fill="url(#paint10_linear_2_1433)" stroke="url(#paint11_linear_2_1433)"/>
<path d="M81.9388 57.9027L81.9388 57.9028C82.0017 58.0742 82.2323 58.0742 82.2952 57.9028L82.2952 57.9028C82.5724 57.1472 82.9145 56.5422 83.4032 56.0536C83.892 55.565 84.4971 55.2229 85.2531 54.9457L85.4252 55.4149L85.2527 54.9458C85.4245 54.8826 85.4237 54.6514 85.2531 54.5886L81.9388 57.9027ZM81.9388 57.9027C81.6613 57.1471 81.3191 56.5422 80.8304 56.0536M81.9388 57.9027L80.8304 56.0536M80.8304 56.0536C80.3418 55.5651 79.7369 55.223 78.9811 54.9458M80.8304 56.0536L78.9811 54.9458M78.9811 54.9458C78.8095 54.8827 78.8099 54.6514 78.9809 54.5886L78.9811 54.9458ZM82.2952 51.6308C82.2324 51.4597 82.0017 51.4597 81.9388 51.6307L82.2952 51.6308ZM82.2952 51.6308C82.5725 52.3867 82.9145 52.9918 83.4032 53.4805C83.8919 53.9692 84.497 54.3113 85.253 54.5886L82.2952 51.6308ZM80.8305 53.4805C80.3418 53.9692 79.7368 54.3113 78.981 54.5886L80.8305 53.4805ZM80.8305 53.4805C81.3192 52.9918 81.6613 52.3867 81.9388 51.6308L80.8305 53.4805Z" fill="url(#paint12_linear_2_1433)" stroke="url(#paint13_linear_2_1433)"/>
<path d="M17.5863 6.96751L17.5863 6.9675C17.309 6.21185 16.967 5.60693 16.4782 5.11831C15.9896 4.62975 15.3845 4.28772 14.6286 4.01046C14.4573 3.94717 14.4582 3.71582 14.6286 3.65321C15.3845 3.37595 15.9896 3.03392 16.4783 2.54523C16.967 2.05652 17.309 1.45143 17.5863 0.69548C17.6491 0.524358 17.8803 0.524358 17.9431 0.69548C18.2204 1.45148 18.5625 2.05654 19.0512 2.54523C19.5399 3.03394 20.1449 3.376 20.9006 3.65328L20.9006 3.65328C21.0716 3.71603 21.0724 3.94722 20.9003 4.01049C20.1448 4.28775 19.5399 4.62978 19.0512 5.11831C18.5625 5.6069 18.2204 6.2118 17.9431 6.9675L17.9431 6.96751C17.8802 7.13889 17.6492 7.13889 17.5863 6.96751Z" fill="url(#paint14_linear_2_1433)" stroke="url(#paint15_linear_2_1433)"/>
<path d="M47.5735 4.70605L47.5732 4.70606C37.0882 4.70944 27.6714 10.5407 23.0023 19.9376C22.8329 20.2772 22.4117 20.419 22.0524 20.2405C21.7148 20.0728 21.5522 19.5908 21.733 19.227L21.7331 19.227C26.6443 9.34375 36.5391 3.10254 47.5597 3.10254H47.5597H47.5598H47.5598H47.5598H47.5598H47.5599H47.5599H47.5599H47.5599H47.56H47.56H47.56H47.56H47.5601H47.5601H47.5601H47.5601H47.5602H47.5602H47.5602H47.5602H47.5602H47.5603H47.5603H47.5603H47.5603H47.5604H47.5604H47.5604H47.5604H47.5605H47.5605H47.5605H47.5605H47.5606H47.5606H47.5606H47.5606H47.5607H47.5607H47.5607H47.5607H47.5608H47.5608H47.5608H47.5608H47.5609H47.5609H47.5609H47.5609H47.561H47.561H47.561H47.561H47.5611H47.5611H47.5611H47.5611H47.5612H47.5612H47.5612H47.5612H47.5613H47.5613H47.5613H47.5613H47.5614H47.5614H47.5614H47.5614H47.5615H47.5615H47.5615H47.5615H47.5616H47.5616H47.5616H47.5617H47.5617H47.5617H47.5617H47.5618H47.5618H47.5618H47.5618H47.5619H47.5619H47.5619H47.5619H47.562H47.562H47.562H47.562H47.5621H47.5621H47.5621H47.5621H47.5622H47.5622H47.5622H47.5622H47.5623H47.5623H47.5623H47.5623H47.5624H47.5624H47.5624H47.5625H47.5625H47.5625H47.5625H47.5626H47.5626H47.5626H47.5626H47.5627H47.5627H47.5627H47.5627H47.5628H47.5628H47.5628H47.5628H47.5629H47.5629H47.5629H47.5629H47.563H47.563H47.563H47.5631H47.5631H47.5631H47.5631H47.5632H47.5632H47.5632H47.5632H47.5633H47.5633H47.5633H47.5633H47.5634H47.5634H47.5634H47.5634H47.5635H47.5635H47.5635H47.5636H47.5636H47.5636H47.5636H47.5637H47.5637H47.5637H47.5637H47.5638H47.5638H47.5638H47.5639H47.5639H47.5639H47.5639H47.564H47.564H47.564H47.564H47.5641H47.5641H47.5641H47.5641H47.5642H47.5642H47.5642H47.5643H47.5643H47.5643H47.5643H47.5644H47.5644H47.5644H47.5644H47.5645H47.5645H47.5645H47.5645H47.5646H47.5646H47.5646H47.5647H47.5647H47.5647H47.5647H47.5648H47.5648H47.5648H47.5648H47.5649H47.5649H47.5649H47.565H47.565H47.565H47.565H47.5651H47.5651H47.5651H47.5651H47.5652H47.5652H47.5652H47.5653H47.5653H47.5653H47.5653H47.5654H47.5654H47.5654H47.5654H47.5655H47.5655H47.5655H47.5656H47.5656H47.5656H47.5656H47.5657H47.5657H47.5657H47.5657H47.5658H47.5658H47.5658H47.5659H47.5659H47.5659H47.5659H47.566H47.566H47.566H47.566H47.5661H47.5661H47.5661H47.5662H47.5662H47.5662H47.5662H47.5663H47.5663H47.5663H47.5663H47.5664H47.5664H47.5664H47.5665H47.5665H47.5665H47.5665H47.5666H47.5666H47.5666H47.5667H47.5667H47.5667H47.5667H47.5668H47.5668H47.5668H47.5668H47.5669H47.5669H47.5669H47.567H47.567H47.567H47.567H47.5671H47.5671H47.5671H47.5671H47.5672H47.5672H47.5672H47.5673H47.5673H47.5673H47.5673H47.5674H47.5674H47.5674H47.5674H47.5675H47.5675H47.5675H47.5676H47.5676H47.5676H47.5676H47.5677H47.5677H47.5677H47.5678H47.5678H47.5678H47.5678H47.5679H47.5679H47.5679H47.5679H47.568H47.568H47.568H47.5681H47.5681H47.5681H47.5681H47.5682H47.5682H47.5682H47.5682H47.5683H47.5683H47.5683H47.5684H47.5684H47.5684H47.5684H47.5685H47.5685H47.5685H47.5686H47.5686H47.5686H47.5686H47.5687H47.5687H47.5687H47.5687H47.5688H47.5688H47.5688H47.5689H47.5689H47.5689H47.5689H47.569H47.569H47.569H47.569H47.5691H47.5691H47.5691H47.5692H47.5692H47.5692H47.5692H47.5693H47.5693H47.5693H47.5694H47.5694H47.5694H47.5694H47.5695H47.5695H47.5695H47.5695H47.5696H47.5696H47.5696H47.5697H47.5697H47.5697H47.5697H47.5698H47.5698H47.5698H47.5698H47.5699H47.5699H47.5699H47.57H47.57H47.57H47.57H47.5701H47.5701H47.5701H47.5701H47.5702H47.5702H47.5702H47.5703H47.5703H47.5703H47.5703H47.5704H47.5704H47.5704H47.5704H47.5705H47.5705H47.5705H47.5706H47.5706H47.5706H47.5706H47.5707H47.5707H47.5707H47.5708H47.5708H47.5708H47.5708H47.5709H47.5709H47.5709H47.5709H47.571H47.571H47.571H47.5711H47.5711H47.5711H47.5711H47.5712H47.5712H47.5712H47.5712H47.5713H47.5713H47.5713H47.5714H47.5714H47.5714H47.5714H47.5715H47.5715H47.5715H47.5715H47.5716H47.5716H47.5716H47.5716H47.5717H47.5717H47.5717H47.5718H47.5718H47.5718H47.5718H47.5719H47.5719H47.5719H47.5719H47.572H47.572H47.572H47.5721H47.5721H47.5721H47.5721H47.5722H47.5722H47.5722H47.5722H47.5723H47.5723H47.5723H47.5723H47.5724H47.5724H47.5724H47.5725H47.5725H47.5725H47.5725H47.5726H47.5726H47.5726H47.5726H47.5727H47.5727H47.5727H47.5727H47.5728H47.5728H47.5728H47.5729H47.5729H47.5729H47.5729H47.573H47.573H47.573H47.573H47.5731H47.5731H47.5731H47.5731H47.5732H47.5732H47.5732H47.5733H47.5733H47.5733H47.5733H47.5734H47.5734H47.5734H47.5734H47.5735H47.5735H47.5735H47.5735H47.5736H47.5736H47.5736H47.5736H47.5737H47.5737H47.5737H47.5737H47.5737H47.5738H47.5738H47.5738H47.5738H47.5739H47.5739H47.5739H47.5739H47.574H47.574H47.574H47.574H47.5741H47.5741H47.5741H47.5741H47.5742H47.5742H47.5742H47.5742H47.5743H47.5743H47.5743H47.5743H47.5744H47.5744H47.5744H47.5744H47.5745H47.5745H47.5745H47.5745H47.5746H47.5746H47.5746H47.5746H47.5747H47.5747H47.5747H47.5747H47.5748H47.5748H47.5748H47.5749H47.5749H47.5749H47.5749H47.575H47.575H47.575H47.575H47.5751H47.5751H47.5751H47.5751H47.5752H47.5752H47.5752H47.5752H47.5753H47.5753H47.5753H47.5753H47.5754H47.5754H47.5754H47.5754H47.5755H47.5755H47.5755H47.5756H47.5756H47.5756H47.5756H47.5757H47.5757H47.5757H47.5757H47.5758H47.5758H47.5758H47.5758H47.5759H47.5759H47.5759H47.576H47.576H47.576H47.576H47.5761H47.5761H47.5761H47.5761H47.5762H47.5762H47.5762H47.5762H47.5763H47.5763H47.5763H47.5764H47.5764H47.5764H47.5764H47.5765H47.5765H47.5765H47.5765H47.5766H47.5766H47.5766H47.5766H47.5767H47.5767H47.5767H47.5768H47.5768H47.5768H47.5768H47.5769H47.5769H47.5769H47.5769H47.577H47.577H47.577H47.5771H47.5771H47.5771H47.5771H47.5772H47.5772H47.5772H47.5772H47.5773H47.5773H47.5773H47.5774H47.5774H47.5774H47.5774H47.5775H47.5775H47.5775H47.5775H47.5776H47.5776H47.5776H47.5777H47.5777H47.5777H47.5777H47.5778H47.5778H47.5778H47.5779H47.5779H47.5779H47.5779H47.578H47.578H47.578H47.578H47.5781H47.5781H47.5781H47.5782H47.5782H47.5782H47.5782H47.5783H47.5783H47.5783H47.5783H47.5784H47.5784H47.5784H47.5785H47.5785H47.5785H47.5785H47.5786H47.5786H47.5786H47.5787H47.5787H47.5787H47.5787H47.5788H47.5788H47.5788H47.5788H47.5789H47.5789H47.5789H47.579H47.579H47.579H47.579H47.5791H47.5791H47.5791H47.5792H47.5792H47.5792H47.5792H47.5793H47.5793H47.5793H47.5794H47.5794H47.5794H47.5794H47.5795H47.5795H47.5795H47.5795H47.5796H47.5796H47.5796H47.5797H47.5797H47.5797H47.5797H47.5798H47.5798H47.5798H47.5799H47.5799H47.5799H47.5799H47.58H47.58H47.58H47.5801H47.5801H47.5801H47.5801H47.5802H47.5802H47.5802H47.5802H47.5803H47.5803H47.5803H47.5804H47.5804H47.5804H47.5804H47.5805H47.5805H47.5805H47.5806H47.5806H47.5806H47.5806H47.5807H47.5807H47.5807H47.5808H47.5808H47.5808H47.5808H47.5809H47.5809H47.5809H47.5809H47.581H47.581H47.581H47.5811H47.5811H47.5811H47.5811H47.5812H47.5812H47.5812H47.5813H47.5813H47.5813H47.5813H47.5814H47.5814H47.5814H47.5815H47.5815H47.5815H47.5815H47.5816H47.5816H47.5816H47.5816H47.5817H47.5817H47.5817H47.5818H47.5818H47.5818H47.5818H47.5819H47.5819H47.5819H47.582H47.582H47.582H47.582H47.5821H47.5821H47.5821H47.5821H47.5822H47.5822H47.5822H47.5823H47.5823H47.5823H47.5823H47.5824H47.5824H47.5824H47.5825H47.5825H47.5825H47.5825H47.5826H47.5826H47.5826H47.5826H47.5827H47.5827H47.5827H47.5828H47.5828H47.5828H47.5828H47.5829H47.5829H47.5829H47.5829H47.583H47.583H47.583H47.5831H47.5831H47.5831H47.5831H47.5832H47.5832H47.5832H47.5833H47.5833H47.5833H47.5833H47.5834H47.5834H47.5834H47.5834H47.5835H47.5835H47.5835H47.5835H47.5836H47.5836H47.5836H47.5837H47.5837H47.5837H47.5837H47.5838H47.5838H47.5838H47.5838H47.5839H47.5839H47.5839H47.584H47.584H47.584H47.584H47.5841H47.5841H47.5841H47.5841H47.5842H47.5842H47.5842H47.5843H47.5843H47.5843H47.5843H47.5844H47.5844H47.5844H47.5844H47.5845H47.5845H47.5845H47.5845H47.5846H47.5846H47.5846H47.5847H47.5847H47.5847H47.5847H47.5848H47.5848H47.5848H47.5848H47.5849H47.5849H47.5849H47.5849H47.585H47.585H47.585H47.585H47.5851H47.5851H47.5851H47.5851H47.5852H47.5852H47.5852H47.5853H47.5853H47.5853H47.5853H47.5854H47.5854H47.5854H47.5854H47.5855H47.5855H47.5855H47.5855H47.5856H47.5856H47.5856H47.5856H47.5857H47.5857H47.5857H47.5857H47.5858H47.5858H47.5858H47.5858H47.5859H47.5859H47.5859H47.5859H47.586H47.586H47.586H47.586H47.5861H47.5861H47.5861H47.5861H47.5862H47.5862H47.5862H47.5862H47.5863H47.5863H47.5863H47.5863H47.5864H47.5864H47.5864H47.5864H47.5865H47.5865H47.5865H47.5865H47.5866H47.5866H47.5866H47.5866H47.5867H47.5867H47.5867H47.5867H47.5868H47.5868H47.5868H47.5868H47.5869H47.5869H47.5869H47.5869H47.587H47.587H47.587H47.587H47.5871C50.5834 3.10254 53.5025 3.64822 56.2701 4.527C56.0712 4.9731 55.9079 5.44596 55.7823 5.92101C53.1698 5.11151 50.4094 4.7068 47.5735 4.70605Z" fill="url(#paint16_linear_2_1433)" stroke="url(#paint17_linear_2_1433)"/>
<path d="M19.6294 24.9886L19.6294 24.9886C19.0359 27.3149 18.7344 29.7228 18.7344 32.1457C18.7344 34.5689 19.0359 36.9768 19.6298 39.303L19.6298 39.3032C19.7113 39.6227 19.999 39.8365 20.3148 39.8365C20.3716 39.8365 20.4299 39.8294 20.4902 39.8138L20.4915 39.8135C20.8701 39.717 21.0992 39.3313 21.0023 38.952L21.0023 38.952C20.4375 36.7402 20.1514 34.4502 20.1514 32.1457C20.1514 29.8416 20.4375 27.5517 21.0026 25.3389L19.6294 24.9886ZM19.6294 24.9886C19.7256 24.6113 20.1123 24.3819 20.4916 24.4772M19.6294 24.9886L20.4916 24.4772M20.4916 24.4772C20.8703 24.5744 21.099 24.9602 21.0026 25.3388L20.4916 24.4772Z" fill="url(#paint18_linear_2_1433)" stroke="url(#paint19_linear_2_1433)"/>
<path d="M73.4137 44.9159L73.4136 44.916C68.504 54.7953 58.6118 60.8917 47.587 60.8917H47.5869H47.5869H47.5869H47.5869H47.5869H47.5869H47.5868H47.5868H47.5868H47.5868H47.5868H47.5868H47.5867H47.5867H47.5867H47.5867H47.5867H47.5867H47.5866H47.5866H47.5866H47.5866H47.5866H47.5866H47.5865H47.5865H47.5865H47.5865H47.5865H47.5865H47.5864H47.5864H47.5864H47.5864H47.5864H47.5864H47.5863H47.5863H47.5863H47.5863H47.5863H47.5863H47.5862H47.5862H47.5862H47.5862H47.5862H47.5862H47.5861H47.5861H47.5861H47.5861H47.5861H47.5861H47.586H47.586H47.586H47.586H47.586H47.586H47.5859H47.5859H47.5859H47.5859H47.5859H47.5859H47.5858H47.5858H47.5858H47.5858H47.5858H47.5858H47.5857H47.5857H47.5857H47.5857H47.5857H47.5857H47.5856H47.5856H47.5856H47.5856H47.5856H47.5856H47.5855H47.5855H47.5855H47.5855H47.5855H47.5854H47.5854H47.5854H47.5854H47.5854H47.5854H47.5853H47.5853H47.5853H47.5853H47.5853H47.5853H47.5852H47.5852H47.5852H47.5852H47.5852H47.5852H47.5851H47.5851H47.5851H47.5851H47.5851H47.585H47.585H47.585H47.585H47.585H47.585H47.5849H47.5849H47.5849H47.5849H47.5849H47.5849H47.5848H47.5848H47.5848H47.5848H47.5848H47.5847H47.5847H47.5847H47.5847H47.5847H47.5847H47.5846H47.5846H47.5846H47.5846H47.5846H47.5845H47.5845H47.5845H47.5845H47.5845H47.5845H47.5844H47.5844H47.5844H47.5844H47.5844H47.5844H47.5843H47.5843H47.5843H47.5843H47.5843H47.5842H47.5842H47.5842H47.5842H47.5842H47.5842H47.5841H47.5841H47.5841H47.5841H47.5841H47.584H47.584H47.584H47.584H47.584H47.584H47.5839H47.5839H47.5839H47.5839H47.5839H47.5838H47.5838H47.5838H47.5838H47.5838H47.5838H47.5837H47.5837H47.5837H47.5837H47.5837H47.5836H47.5836H47.5836H47.5836H47.5836H47.5836H47.5835H47.5835H47.5835H47.5835H47.5835H47.5834H47.5834H47.5834H47.5834H47.5834H47.5834H47.5833H47.5833H47.5833H47.5833H47.5833H47.5832H47.5832H47.5832H47.5832H47.5832H47.5832H47.5831H47.5831H47.5831H47.5831H47.5831H47.583H47.583H47.583H47.583H47.583H47.583H47.5829H47.5829H47.5829H47.5829H47.5829H47.5828H47.5828H47.5828H47.5828H47.5828H47.5828H47.5827H47.5827H47.5827H47.5827H47.5827H47.5826H47.5826H47.5826H47.5826H47.5826H47.5826H47.5825H47.5825H47.5825H47.5825H47.5825H47.5824H47.5824H47.5824H47.5823H47.5823H47.5823H47.5822H47.5822H47.5822H47.5821H47.5821H47.5821H47.582H47.582H47.582H47.5819H47.5819H47.5819H47.5818H47.5818H47.5818H47.5817H47.5817H47.5817H47.5816H47.5816H47.5816H47.5815H47.5815H47.5815H47.5814H47.5814H47.5814H47.5813H47.5813H47.5813H47.5812H47.5812H47.5812H47.5811H47.5811H47.5811H47.581H47.581H47.581H47.5809H47.5809H47.5809H47.5808H47.5808H47.5808H47.5807H47.5807H47.5807H47.5806H47.5806H47.5806H47.5805H47.5805H47.5805H47.5804H47.5804H47.5804H47.5803H47.5803H47.5802H47.5802H47.5802H47.5801H47.5801H47.5801H47.58H47.58H47.58H47.5799H47.5799H47.5799H47.5798H47.5798H47.5798H47.5797H47.5797H47.5797H47.5796H47.5796H47.5795H47.5795H47.5795H47.5794H47.5794H47.5794H47.5793H47.5793H47.5793H47.5792H47.5792H47.5792H47.5791H47.5791H47.579H47.579H47.579H47.5789H47.5789H47.5789H47.5788H47.5788H47.5788H47.5787H47.5787H47.5786H47.5786H47.5786H47.5785H47.5785H47.5785H47.5784H47.5784H47.5784H47.5783H47.5783H47.5782H47.5782H47.5782H47.5781H47.5781H47.5781H47.578H47.578H47.578H47.5779H47.5779H47.5778H47.5778H47.5778H47.5777H47.5777H47.5777H47.5776H47.5776H47.5775H47.5775H47.5775H47.5774H47.5774H47.5774H47.5773H47.5773H47.5773H47.5772H47.5772H47.5771H47.5771H47.5771H47.577H47.577H47.577H47.5769H47.5769H47.5768H47.5768H47.5768H47.5767H47.5767H47.5767H47.5766H47.5766H47.5765H47.5765H47.5765H47.5764H47.5764H47.5764H47.5763H47.5763H47.5762H47.5762H47.5762H47.5761H47.5761H47.5761H47.576H47.576H47.5759H47.5759H47.5759H47.5758H47.5758H47.5758H47.5757H47.5757H47.5756H47.5756H47.5756H47.5755H47.5755H47.5755H47.5754H47.5754H47.5753H47.5753H47.5753H47.5752H47.5752H47.5751H47.5751H47.5751H47.575H47.575H47.575H47.5749H47.5749H47.5748H47.5748H47.5748H47.5747H47.5747H47.5747H47.5746H47.5746H47.5745H47.5745H47.5745H47.5744H47.5744H47.5744H47.5743H47.5743H47.5742H47.5742H47.5742H47.5741H47.5741H47.574H47.574H47.574H47.5739H47.5739H47.5739H47.5738H47.5738H47.5737H47.5737H47.5737H47.5736H47.5736H47.5736H47.5735H47.5735H47.5734H47.5734H47.5734H47.5733H47.5733H47.5732H47.5732H47.5732H47.5731H47.5731H47.5731H47.573H47.573H47.5729H47.5729H47.5729H47.5728H47.5728H47.5728H47.5727H47.5727H47.5726H47.5726H47.5726H47.5725H47.5725H47.5724H47.5724H47.5724H47.5723H47.5723H47.5723H47.5722H47.5722H47.5721H47.5721H47.5721H47.572H47.572H47.572H47.5719H47.5719H47.5718H47.5718H47.5718H47.5717H47.5717H47.5717H47.5716H47.5716H47.5715H47.5715H47.5715H47.5714H47.5714H47.5714H47.5713H47.5713H47.5712H47.5712H47.5712H47.5711H47.5711H47.5711H47.571H47.571H47.5709H47.5709H47.5709H47.5708H47.5708H47.5708H47.5707H47.5707H47.5706H47.5706H47.5706H47.5705H47.5705H47.5705H47.5704H47.5704H47.5703H47.5703H47.5703H47.5702H47.5702H47.5702H47.5701H47.5701H47.57H47.57H47.57H47.5699H47.5699H47.5699H47.5698H47.5698H47.5697H47.5697H47.5697H47.5696H47.5696H47.5696H47.5695H47.5695H47.5695H47.5694H47.5694H47.5693H47.5693H47.5693H47.5692H47.5692H47.5692H47.5691H47.5691H47.569H47.569H47.569H47.5689H47.5689H47.5689H47.5688H47.5688H47.5688H47.5687H47.5687H47.5686H47.5686H47.5686H47.5685H47.5685H47.5685H47.5684H47.5684H47.5684H47.5683H47.5683H47.5682H47.5682H47.5682H47.5681H47.5681H47.5681H47.568H47.568H47.568H47.5679H47.5679H47.5679H47.5678H47.5678H47.5677H47.5677H47.5677H47.5676H47.5676H47.5676H47.5675H47.5675H47.5675H47.5674H47.5674H47.5674H47.5673H47.5673H47.5673H47.5672H47.5672H47.5671H47.5671H47.5671H47.567H47.567H47.567H47.5669H47.5669H47.5669H47.5668H47.5668H47.5668H47.5667H47.5667H47.5667H47.5666H47.5666H47.5666H47.5665H47.5665H47.5665H47.5664H47.5664H47.5664H47.5663H47.5663H47.5662H47.5662H47.5662H47.5661H47.5661H47.5661H47.566H47.566H47.566H47.5659H47.5659H47.5659H47.5658H47.5658H47.5658H47.5657H47.5657H47.5657H47.5656H47.5656H47.5656H47.5655H47.5655H47.5655H47.5654H47.5654H47.5654H47.5653H47.5653H47.5653H47.5652H47.5652H47.5652H47.5652H47.5651H47.5651H47.5651H47.565H47.565H47.565H47.5649H47.5649H47.5649H47.5648H47.5648H47.5648H47.5647H47.5647H47.5647H47.5646H47.5646H47.5646H47.5645H47.5645H47.5645H47.5644H47.5644H47.5644H47.5644H47.5643H47.5643H47.5643H47.5642H47.5642H47.5642H47.5641H47.5641H47.5641H47.5641H47.5641H47.564H47.564H47.564H47.564H47.564H47.564H47.5639H47.5639H47.5639H47.5639H47.5639H47.5639H47.5638H47.5638H47.5638H47.5638H47.5638H47.5638H47.5637H47.5637H47.5637H47.5637H47.5637H47.5637H47.5636H47.5636H47.5636H47.5636H47.5636H47.5636H47.5635H47.5635H47.5635H47.5635H47.5635H47.5635H47.5634H47.5634H47.5634H47.5634H47.5634H47.5634H47.5633H47.5633H47.5633H47.5633H47.5633H47.5633H47.5632H47.5632H47.5632H47.5632H47.5632H47.5632H47.5631H47.5631H47.5631H47.5631H47.5631H47.5631H47.563H47.563H47.563H47.563H47.563H47.563H47.5629H47.5629H47.5629H47.5629H47.5629H47.5629H47.5628H47.5628H47.5628H47.5628H47.5628H47.5628H47.5627H47.5627H47.5627H47.5627H47.5627H47.5626H47.5626H47.5626H47.5626H47.5626H47.5626H47.5625H47.5625H47.5625H47.5625H47.5625H47.5625H47.5624H47.5624H47.5624H47.5624H47.5624H47.5624H47.5623H47.5623H47.5623H47.5623H47.5623H47.5622H47.5622H47.5622H47.5622H47.5622H47.5622H47.5621H47.5621H47.5621H47.5621H47.5621H47.5621H47.562H47.562H47.562H47.562H47.562H47.5619H47.5619H47.5619H47.5619H47.5619H47.5619H47.5618H47.5618H47.5618H47.5618H47.5618H47.5618H47.5617H47.5617H47.5617H47.5617H47.5617H47.5616H47.5616H47.5616H47.5616H47.5616H47.5616H47.5615H47.5615H47.5615H47.5615H47.5615H47.5614H47.5614H47.5614H47.5614H47.5614H47.5614H47.5613H47.5613H47.5613H47.5613H47.5613H47.5612H47.5612H47.5612H47.5612H47.5612H47.5612H47.5611H47.5611H47.5611H47.5611H47.5611H47.5611H47.561H47.561H47.561H47.561H47.561H47.5609H47.5609H47.5609H47.5609H47.5609H47.5609H47.5608H47.5608H47.5608H47.5608H47.5608H47.5607H47.5607H47.5607H47.5607H47.5607H47.5607H47.5606H47.5606H47.5606H47.5606H47.5606H47.5605H47.5605H47.5605H47.5605H47.5605H47.5605H47.5604H47.5604H47.5604H47.5604H47.5604H47.5603H47.5603H47.5603H47.5603H47.5603H47.5602H47.5602H47.5602H47.5602H47.5602H47.5602H47.5601H47.5601H47.5601H47.5601H47.5601H47.56H47.56H47.56H47.56H47.56H47.56H47.5599H47.5599H47.5599H47.5599H47.5599H47.5598H47.5598H47.5598H47.5598H47.5598H47.5598H47.5597H47.5597H47.5597H47.5597H47.5597H47.5596H47.5596H47.5596C36.5344 60.8917 26.6422 54.7947 21.7326 44.9152L21.7325 44.9151C21.564 44.5762 21.6897 44.1961 22.0519 44.0162L22.0519 44.0162L22.0528 44.0158C22.4018 43.8416 22.8278 43.9836 23.002 44.3337C27.671 53.7305 37.0877 59.5674 47.5729 59.571H47.5733C58.0585 59.5674 67.475 53.7197 72.1443 44.3241L72.1443 44.3241C72.3225 43.9653 72.7526 43.822 73.094 43.9917L73.0941 43.9917C73.4505 44.1689 73.5848 44.5717 73.4137 44.9159Z" fill="url(#paint20_linear_2_1433)" stroke="url(#paint21_linear_2_1433)"/>
<path d="M74.1446 38.952L74.1446 38.952C74.0476 39.3316 74.2768 39.7171 74.6552 39.8135L74.6566 39.8138C74.7169 39.8294 74.7752 39.8365 74.832 39.8365C75.148 39.8365 75.4356 39.6227 75.517 39.3032L75.5171 39.303C76.111 36.9768 76.4125 34.5689 76.4125 32.1457C76.4125 29.7228 76.111 27.3149 75.5174 24.9886L75.5174 24.9885C75.4211 24.6109 75.0359 24.3814 74.6553 24.4771C74.2766 24.5743 74.0479 24.9601 74.1442 25.3387L74.1446 38.952ZM74.1446 38.952C74.7093 36.7402 74.9955 34.4502 74.9955 32.1457C74.9955 29.8416 74.7093 27.5517 74.1443 25.3389L74.1446 38.952ZM73.6602 38.8283L73.6603 38.8283L73.6602 38.8283Z" fill="url(#paint22_linear_2_1433)" stroke="url(#paint23_linear_2_1433)"/>
<path d="M73.8613 19.1023C74.1586 19.6998 73.9145 20.4252 73.3166 20.7221C73.1441 20.8082 72.9607 20.8486 72.7799 20.8486C72.3357 20.8486 71.9078 20.6025 71.6965 20.1775L73.8613 19.1023ZM73.8613 19.1023C72.8959 17.1584 71.7385 15.3594 70.4217 13.718L73.8613 19.1023ZM68.9636 14.9646L68.6868 14.6182L68.3098 14.8517C67.1233 15.5865 65.7322 16.0166 64.2373 16.0166C59.9523 16.0166 56.4785 12.5432 56.4785 8.2584C56.4785 3.97381 59.9521 0.5 64.2373 0.5C68.5215 0.5 71.9953 3.9736 71.9953 8.2584C71.9953 10.2265 71.257 12.0176 70.047 13.3869L69.7682 13.7024L70.0317 14.0308C71.3263 15.6447 72.4643 17.4134 73.4135 19.3247L73.4137 19.3251C73.5877 19.6748 73.4449 20.1001 73.0942 20.2742L73.0932 20.2748C72.9924 20.3251 72.8858 20.3486 72.7799 20.3486C72.5182 20.3486 72.2678 20.2036 72.1442 19.9549C71.2501 18.1555 70.1807 16.4874 68.9636 14.9646ZM62.2896 5.04004V6.39941H61.0193C60.5039 6.39941 60.0719 6.66873 59.7832 7.00975C59.4951 7.35007 59.3107 7.80418 59.3107 8.2666C59.3107 8.72902 59.4951 9.18314 59.7832 9.52345C60.0719 9.86448 60.5039 10.1338 61.0193 10.1338H62.2896V11.4754C62.2896 11.991 62.5589 12.423 62.9 12.7117C63.2404 12.9998 63.6945 13.184 64.1568 13.184C64.6192 13.184 65.0733 12.9998 65.4136 12.7117C65.7548 12.423 66.024 11.991 66.024 11.4754V10.1338H67.4547C67.9702 10.1338 68.4022 9.8645 68.6909 9.52343C68.979 9.18309 69.1633 8.72897 69.1633 8.2666C69.1633 7.80418 68.9789 7.35007 68.6908 7.00975C68.4021 6.66873 67.9701 6.39941 67.4547 6.39941H66.024V5.04004C66.024 4.52454 65.7547 4.09254 65.4137 3.80384C65.0733 3.51575 64.6192 3.33145 64.1568 3.33145C63.6944 3.33145 63.2403 3.51583 62.9 3.80393C62.559 4.09263 62.2896 4.52461 62.2896 5.04004Z" fill="url(#paint24_linear_2_1433)" stroke="url(#paint25_linear_2_1433)"/>
<path d="M31.4546 28.0464C31.4538 28.0445 31.4528 28.0422 31.4516 28.0395C31.4437 28.0206 31.4347 27.9957 31.4235 27.9627C31.4216 27.9572 31.4193 27.9503 31.4167 27.9425C31.4163 27.9414 31.4159 27.9403 31.4155 27.9391L31.4142 27.929C31.394 27.7731 31.397 27.7182 31.3985 27.7044C31.4034 27.6957 31.4172 27.6722 31.452 27.6201L31.4521 27.6202L31.4579 27.611L31.5781 27.422L35.0638 22.106C35.0639 22.1059 35.0641 22.1057 35.0642 22.1055C35.1161 22.027 35.1829 21.9534 35.2489 21.9042C35.3118 21.8573 35.3453 21.853 35.3484 21.8526C35.3487 21.8525 35.3487 21.8525 35.3484 21.8525H43.6533H51.4926H59.7979C59.7976 21.8525 59.7976 21.8525 59.7979 21.8526C59.801 21.853 59.8344 21.8573 59.8971 21.9041C59.9628 21.9531 60.0294 22.0263 60.0813 22.1046C60.0815 22.105 60.0818 22.1054 60.0821 22.1058L63.6908 27.6539L63.6908 27.6539L63.6943 27.6591C63.7442 27.7339 63.7598 27.824 63.7406 27.9068L63.7379 27.9182L63.7358 27.9297C63.7302 27.9599 63.7139 28.0026 63.6809 28.0508L48.8599 48.5195L48.8581 48.5219C48.6436 48.8219 48.3257 49.0361 47.9697 49.1302C47.8313 49.1637 47.6965 49.1816 47.5627 49.1816C47.4318 49.1816 47.2977 49.1625 47.1561 49.1278C46.8051 49.0355 46.4878 48.819 46.265 48.5126C46.2649 48.5124 46.2648 48.5123 46.2647 48.5121L31.4546 28.0464ZM59.5012 26.126H56.8809C55.958 26.126 55.1723 26.8345 55.1723 27.7979C55.1723 28.7612 55.958 29.4697 56.8809 29.4697H59.5012C60.4246 29.4697 61.2098 28.7611 61.2098 27.7979C61.2098 26.8346 60.4246 26.126 59.5012 26.126ZM50.9758 26.126H35.7459C34.823 26.126 34.0373 26.8345 34.0373 27.7979C34.0373 28.7612 34.823 29.4697 35.7459 29.4697H50.9758C51.8992 29.4697 52.6844 28.7611 52.6844 27.7979C52.6844 26.8346 51.8992 26.126 50.9758 26.126Z" fill="url(#paint26_linear_2_1433)" stroke="url(#paint27_linear_2_1433)"/>
<defs>
<linearGradient id="paint0_linear_2_1433" x1="44.5225" y1="75.1042" x2="50.7595" y2="76.0491" gradientUnits="userSpaceOnUse">
<stop stop-color="#fd01a7"/>
<stop offset="1" stop-color="#8247e5"/>
</linearGradient>
<linearGradient id="paint1_linear_2_1433" x1="44.5225" y1="75.1042" x2="50.7595" y2="76.0491" gradientUnits="userSpaceOnUse">
<stop stop-color="#fd01a7"/>
<stop offset="1" stop-color="#8247e5"/>
</linearGradient>
<linearGradient id="paint2_linear_2_1433" x1="-29.9508" y1="67.6416" x2="62.1403" y2="136.121" gradientUnits="userSpaceOnUse">
<stop stop-color="#fd01a7"/>
<stop offset="1" stop-color="#8247e5"/>
</linearGradient>
<linearGradient id="paint3_linear_2_1433" x1="-29.9508" y1="67.6416" x2="62.1403" y2="136.121" gradientUnits="userSpaceOnUse">
<stop stop-color="#fd01a7"/>
<stop offset="1" stop-color="#8247e5"/>
</linearGradient>
<linearGradient id="paint4_linear_2_1433" x1="69.6389" y1="75.1042" x2="75.8771" y2="76.0494" gradientUnits="userSpaceOnUse">
<stop stop-color="#fd01a7"/>
<stop offset="1" stop-color="#8247e5"/>
</linearGradient>
<linearGradient id="paint5_linear_2_1433" x1="69.6389" y1="75.1042" x2="75.8771" y2="76.0494" gradientUnits="userSpaceOnUse">
<stop stop-color="#fd01a7"/>
<stop offset="1" stop-color="#8247e5"/>
</linearGradient>
<linearGradient id="paint6_linear_2_1433" x1="19.4046" y1="75.1042" x2="25.6427" y2="76.0494" gradientUnits="userSpaceOnUse">
<stop stop-color="#fd01a7"/>
<stop offset="1" stop-color="#8247e5"/>
</linearGradient>
<linearGradient id="paint7_linear_2_1433" x1="19.4046" y1="75.1042" x2="25.6427" y2="76.0494" gradientUnits="userSpaceOnUse">
<stop stop-color="#fd01a7"/>
<stop offset="1" stop-color="#8247e5"/>
</linearGradient>
<linearGradient id="paint8_linear_2_1433" x1="15.7676" y1="92.251" x2="26.0742" y2="112.174" gradientUnits="userSpaceOnUse">
<stop stop-color="#fd01a7"/>
<stop offset="1" stop-color="#8247e5"/>
</linearGradient>
<linearGradient id="paint9_linear_2_1433" x1="15.7676" y1="92.251" x2="26.0742" y2="112.174" gradientUnits="userSpaceOnUse">
<stop stop-color="#fd01a7"/>
<stop offset="1" stop-color="#8247e5"/>
</linearGradient>
<linearGradient id="paint10_linear_2_1433" x1="60.3361" y1="92.251" x2="69.4625" y2="96.1514" gradientUnits="userSpaceOnUse">
<stop stop-color="#fd01a7"/>
<stop offset="1" stop-color="#8247e5"/>
</linearGradient>
<linearGradient id="paint11_linear_2_1433" x1="60.3361" y1="92.251" x2="69.4625" y2="96.1514" gradientUnits="userSpaceOnUse">
<stop stop-color="#fd01a7"/>
<stop offset="1" stop-color="#8247e5"/>
</linearGradient>
<linearGradient id="paint12_linear_2_1433" x1="75.9326" y1="51.0024" x2="87.0241" y2="52.6829" gradientUnits="userSpaceOnUse">
<stop stop-color="#fd01a7"/>
<stop offset="1" stop-color="#8247e5"/>
</linearGradient>
<linearGradient id="paint13_linear_2_1433" x1="75.9326" y1="51.0024" x2="87.0241" y2="52.6829" gradientUnits="userSpaceOnUse">
<stop stop-color="#fd01a7"/>
<stop offset="1" stop-color="#8247e5"/>
</linearGradient>
<linearGradient id="paint14_linear_2_1433" x1="11.5806" y1="0.0671389" x2="22.6719" y2="1.74757" gradientUnits="userSpaceOnUse">
<stop stop-color="#fd01a7"/>
<stop offset="1" stop-color="#8247e5"/>
</linearGradient>
<linearGradient id="paint15_linear_2_1433" x1="11.5806" y1="0.0671389" x2="22.6719" y2="1.74757" gradientUnits="userSpaceOnUse">
<stop stop-color="#fd01a7"/>
<stop offset="1" stop-color="#8247e5"/>
</linearGradient>
<linearGradient id="paint16_linear_2_1433" x1="9.64701" y1="2.60254" x2="59.2206" y2="17.3707" gradientUnits="userSpaceOnUse">
<stop stop-color="#fd01a7"/>
<stop offset="1" stop-color="#8247e5"/>
</linearGradient>
<linearGradient id="paint17_linear_2_1433" x1="9.64701" y1="2.60254" x2="59.2206" y2="17.3707" gradientUnits="userSpaceOnUse">
<stop stop-color="#fd01a7"/>
<stop offset="1" stop-color="#8247e5"/>
</linearGradient>
<linearGradient id="paint18_linear_2_1433" x1="17.1767" y1="23.9556" x2="22.1309" y2="24.1063" gradientUnits="userSpaceOnUse">
<stop stop-color="#fd01a7"/>
<stop offset="1" stop-color="#8247e5"/>
</linearGradient>
<linearGradient id="paint19_linear_2_1433" x1="17.1767" y1="23.9556" x2="22.1309" y2="24.1063" gradientUnits="userSpaceOnUse">
<stop stop-color="#fd01a7"/>
<stop offset="1" stop-color="#8247e5"/>
</linearGradient>
<linearGradient id="paint20_linear_2_1433" x1="4.17724" y1="43.4202" x2="70.6137" y2="73.0109" gradientUnits="userSpaceOnUse">
<stop stop-color="#fd01a7"/>
<stop offset="1" stop-color="#8247e5"/>
</linearGradient>
<linearGradient id="paint21_linear_2_1433" x1="4.17724" y1="43.4202" x2="70.6137" y2="73.0109" gradientUnits="userSpaceOnUse">
<stop stop-color="#fd01a7"/>
<stop offset="1" stop-color="#8247e5"/>
</linearGradient>
<linearGradient id="paint22_linear_2_1433" x1="72.5644" y1="23.9553" x2="77.5186" y2="24.1061" gradientUnits="userSpaceOnUse">
<stop stop-color="#fd01a7"/>
<stop offset="1" stop-color="#8247e5"/>
</linearGradient>
<linearGradient id="paint23_linear_2_1433" x1="72.5644" y1="23.9553" x2="77.5186" y2="24.1061" gradientUnits="userSpaceOnUse">
<stop stop-color="#fd01a7"/>
<stop offset="1" stop-color="#8247e5"/>
</linearGradient>
<linearGradient id="paint24_linear_2_1433" x1="50.1898" y1="6.84294e-07" x2="76.8735" y2="3.4924" gradientUnits="userSpaceOnUse">
<stop stop-color="#fd01a7"/>
<stop offset="1" stop-color="#8247e5"/>
</linearGradient>
<linearGradient id="paint25_linear_2_1433" x1="50.1898" y1="6.84294e-07" x2="76.8735" y2="3.4924" gradientUnits="userSpaceOnUse">
<stop stop-color="#fd01a7"/>
<stop offset="1" stop-color="#8247e5"/>
</linearGradient>
<linearGradient id="paint26_linear_2_1433" x1="20.1775" y1="21.3525" x2="68.8889" y2="30.0414" gradientUnits="userSpaceOnUse">
<stop stop-color="#fd01a7"/>
<stop offset="1" stop-color="#8247e5"/>
</linearGradient>
<linearGradient id="paint27_linear_2_1433" x1="20.1775" y1="21.3525" x2="68.8889" y2="30.0414" gradientUnits="userSpaceOnUse">
<stop stop-color="#fd01a7"/>
<stop offset="1" stop-color="#8247e5"/>
</linearGradient>
</defs>
</svg>
