<svg width="24" height="24" viewBox="0 0 24 24" fill="none" xmlns="http://www.w3.org/2000/svg">
<g clip-path="url(#clip0_2_1646)">
<path d="M18.7751 8.31613C18.552 5.9226 16.7843 5.1242 15.3931 5.08343C13.4993 5.02801 10.5989 4.95556 8.14201 4.92512C6.20781 4.90107 4.64294 6.26606 4.64294 8.40788C4.64294 11.2995 4.48145 13.3894 4.48145 15.2881C4.48145 17.5466 5.6224 19.1978 8.26575 19.3321C9.65207 19.4026 13.5985 19.7118 15.8176 19.3257C18.7617 18.8135 18.9416 16.5936 18.9865 15.3784C19.0608 13.3661 19.0489 11.2547 18.7751 8.31613ZM14.7418 16.4183C14.7418 16.4183 14.3654 16.0618 14.0518 15.6557C15.4212 15.2602 15.9439 14.3837 15.9439 14.3837C15.5153 14.6722 15.1075 14.7722 14.7417 14.9111C14.2189 15.1356 13.7172 15.1821 13.2258 15.2676C12.7407 15.3606 12.2755 15.3957 11.8355 15.3907C11.3954 15.3957 10.9302 15.3606 10.4451 15.2676C9.95376 15.1822 9.45202 15.1356 8.92929 14.9111C8.5634 14.7722 8.15573 14.5691 7.72717 14.2805C7.72717 14.2805 8.2498 15.157 9.61927 15.5525C9.30567 15.9587 9.03022 16.2118 9.03022 16.2118C6.71995 16.137 5.83143 14.3807 5.83143 14.3807C5.83143 10.9388 7.23582 8.56186 7.23582 8.56186C8.74125 7.40741 10.1734 7.4395 10.1734 7.4395L10.3197 7.61052C8.54261 8.16638 7.71677 8.96797 7.71677 8.96797C8.80393 8.35875 9.87029 8.05946 10.8634 7.94191C11.1952 7.90413 11.5204 7.88824 11.8356 7.88845C12.1508 7.88824 12.4759 7.90413 12.8078 7.94191C13.8008 8.05946 14.8671 8.35875 15.9544 8.96797C15.9544 8.96797 15.1285 8.16638 13.3514 7.61052L13.4977 7.4395C13.4977 7.4395 14.9299 7.40741 16.4352 8.56186C16.4352 8.56186 17.9405 11.3516 17.9405 14.7935C17.9405 14.7935 17.052 16.3434 14.7418 16.4183Z" fill="url(#paint0_linear_2_1646)"/>
<path d="M9.99442 11.3049C9.51337 11.2131 9.03989 11.5085 8.79473 11.9236C8.50696 12.4106 8.53512 13.0571 8.86901 13.5125C9.16283 13.9134 9.65751 14.0936 10.1247 13.941C10.7081 13.7505 10.9875 13.1005 10.9929 12.4973C10.9978 11.9292 10.5494 11.4108 9.99442 11.3049Z" fill="url(#paint1_linear_2_1646)"/>
<path d="M18.4995 14.5373C18.4201 13.6342 18.2772 12.7133 18.0509 11.8361C17.8142 10.9185 17.6545 9.98353 17.295 9.10309C17.1583 8.7685 17.0307 8.26847 16.7276 8.05349C16.4278 7.84079 16.1225 7.68743 15.7856 7.53964C15.2154 7.28947 14.6862 7.05406 14.0638 6.97273C13.9153 6.95818 13.6035 6.87386 13.48 7.00545C13.3989 7.09204 13.367 7.25118 13.3125 7.35665C13.2505 7.47678 13.1804 7.61487 13.316 7.71849C12.4425 7.56234 11.5695 7.54242 10.689 7.63944C10.7002 7.63871 10.7113 7.63799 10.7225 7.63717C10.6452 7.64171 10.5712 7.65512 10.4947 7.6639C10.6261 7.50806 10.4845 7.14508 10.3539 7.00441C10.2658 6.83939 9.86306 6.97438 9.73074 7.00235C9.24878 7.10411 8.76177 7.2003 8.3 7.37678C7.86084 7.5448 7.1219 7.74192 6.85988 8.16888C6.52569 8.97739 6.27154 9.82708 6.02869 10.6681C5.83147 11.3413 5.71418 12.0439 5.56965 12.7311C5.49728 13.0755 5.43046 13.4207 5.38736 13.7703C5.36041 13.9891 5.34093 14.2077 5.33013 14.428C5.32085 14.6171 5.27936 14.8638 5.32942 15.0487C5.40856 15.3408 5.77495 15.6388 5.98701 15.8243C6.27598 16.0772 6.58857 16.2626 6.94214 16.4054C7.38595 16.572 7.8236 16.7575 8.29506 16.826C8.48723 16.854 8.67982 16.8739 8.87391 16.8792C9.04913 16.8492 9.11756 16.7033 9.22233 16.5662C9.35597 16.3913 9.48708 16.2125 9.63283 16.0478C9.71852 15.951 9.85811 15.8503 9.8454 15.7003C10.5441 15.9414 11.2047 15.9714 11.9433 15.9566C12.6093 15.9433 13.2648 15.8884 13.912 15.7154C13.8786 15.9202 14.0982 16.105 14.2136 16.2494C14.3338 16.3999 14.4618 16.544 14.589 16.6884C14.6596 16.7686 14.7387 16.8935 14.8497 16.9211C15.0888 16.9806 15.4492 16.8231 15.6809 16.7679C15.9015 16.7153 16.1197 16.6557 16.3365 16.5885C16.9628 16.3942 17.6012 16.0904 18.0943 15.6393C18.2499 15.4969 18.4921 15.2697 18.5375 15.0462C18.5694 14.8906 18.5144 14.6931 18.4995 14.5373ZM17.9096 15.0313C17.4434 15.5859 16.8557 15.9712 16.1883 16.2279C15.8495 16.3581 14.9663 16.5441 14.9663 16.5441C14.83 16.3688 14.5912 16.0407 14.4642 15.8585C15.0068 15.6899 15.5454 15.3613 15.9493 14.951C16.0559 14.8426 16.3078 14.626 16.3529 14.4643C16.3825 14.3582 16.3208 14.2439 16.2168 14.2136C16.056 14.1666 15.904 14.3594 15.7875 14.4429C14.9828 15.019 13.9022 15.2836 12.9416 15.3857C12.1052 15.4747 11.2176 15.5418 10.3914 15.3647C9.60003 15.195 9.04338 14.972 8.42233 14.6356C8.09238 14.457 7.91918 14.284 7.84217 14.2446C7.74174 14.1932 7.62708 14.1831 7.55774 14.296C7.46952 14.4397 7.62143 14.6224 7.69945 14.7325C7.89274 15.005 8.18726 15.2207 8.45605 15.4174C8.71514 15.6071 9.0025 15.7226 9.30116 15.8363C9.17893 15.9955 8.82607 16.4924 8.82607 16.4924C8.61259 16.4668 8.28163 16.367 8.07199 16.3198C7.62385 16.2189 7.19387 16.0635 6.79962 15.8205C6.5484 15.6656 6.31292 15.4794 6.10369 15.2692C6.01133 15.1764 5.92352 15.0779 5.84489 14.9727C5.76415 14.8645 5.79927 14.688 5.80492 14.5551C5.82612 13.8091 5.96329 13.0818 6.10954 12.3525C6.25024 11.6514 6.31928 10.9507 6.55012 10.27C6.66427 9.93348 6.79044 9.60199 6.92852 9.27493C7.02884 9.03725 7.15067 8.57014 7.37111 8.42957C7.8239 8.14091 8.26044 7.89631 8.7535 7.693C8.93619 7.61766 9.12281 7.54211 9.31227 7.48711C9.47134 7.44087 9.92796 7.27667 10.1131 7.27667L10.1506 7.41383C8.70485 7.79734 7.44812 8.66127 7.37232 8.86066C7.31227 9.01857 7.43954 9.12559 7.57782 9.07244C7.7379 9.01093 8.05938 8.87697 8.16334 8.82846C9.71751 8.24886 11.2984 7.9377 12.9461 8.17373C13.9434 8.31656 15.1094 8.51111 16.0262 8.9842C16.2284 9.08854 16.3433 8.89451 16.2557 8.78543C16.0766 8.56271 15.6077 8.33504 15.3113 8.16712C14.9952 7.98817 13.9485 7.60631 13.6375 7.49629C13.6602 7.4322 13.7384 7.28131 13.7384 7.28131C14.2699 7.33261 15.1771 7.68763 15.6645 7.90911C15.8893 8.01128 16.3205 8.29014 16.4862 8.4787C16.7451 8.99462 16.9676 9.53263 17.1391 10.0855C17.3279 10.6945 17.4419 11.3244 17.6406 11.9306C17.7853 12.3722 17.8909 12.8175 17.9444 13.2803C17.9845 13.597 18.0026 13.9168 18.0138 14.2357C18.0227 14.5006 18.0834 14.8229 17.9096 15.0313C17.8616 15.0883 17.9444 14.9896 17.9096 15.0313Z" fill="url(#paint2_linear_2_1646)"/>
<path d="M14.9991 12.4957C14.9097 11.8449 14.3817 11.3084 13.7221 11.318C12.9753 11.3288 12.4644 12.0445 12.533 12.7781C12.593 13.4192 13.1078 14.0119 13.767 14.0002C14.1278 13.9938 14.4626 13.8701 14.7027 13.585C14.9517 13.2893 15.0518 12.8786 14.9991 12.4957C14.9675 12.2655 15.0273 12.7007 14.9991 12.4957Z" fill="url(#paint3_linear_2_1646)"/>
<path d="M19.682 7.63466C19.6639 6.45946 19.367 5.29943 18.3861 4.58216C17.4089 3.86757 16.0248 4.00741 14.8844 4.01763C13.9706 4.02568 13.0592 4.06944 12.1463 4.1036C10.3778 4.16985 8.62776 4.12929 6.85869 4.13342C5.79919 4.1359 4.78885 4.79641 4.32799 5.76097C3.97573 6.49796 4.06314 7.31968 4.09695 8.11466C4.20444 10.6373 3.92859 13.1577 4.01822 15.6767C4.05839 16.8052 4.01489 18.0108 4.79975 18.9048C5.36871 19.5528 6.15448 19.8273 6.98022 19.8672C8.16175 19.9241 9.34388 19.8626 10.5255 19.9011C11.4792 19.9322 12.419 19.8614 13.3718 19.8645C14.4603 19.868 15.5445 19.8236 16.6329 19.8036C17.7833 19.7823 18.7928 19.2703 19.3507 18.2014C19.8102 17.3212 19.6995 16.1748 19.7424 15.2141C19.7987 13.9477 19.7013 8.88736 19.682 7.63466ZM19.1461 14.146C19.113 15.1775 19.1373 16.2442 19.0411 17.272C18.9453 18.2947 17.945 19.2201 16.9677 19.2735C15.8774 19.3332 14.7847 19.3346 13.696 19.2512C12.725 19.1769 11.7674 19.289 10.7963 19.3011C9.58653 19.3161 8.37593 19.3104 7.16614 19.2969C6.22503 19.2865 5.28958 19.0546 4.82044 18.1191C4.58012 17.6396 4.57174 17.1294 4.55771 16.6041C4.54005 15.9426 4.52743 15.2821 4.53258 14.6202C4.54267 13.3325 4.53086 12.045 4.54893 10.7574C4.56629 9.52331 4.69912 8.30064 4.76533 7.06982C4.81701 6.11001 5.25516 5.30336 6.15468 4.91881C6.6219 4.71901 7.14383 4.73098 7.64184 4.72561C8.33717 4.71818 9.03291 4.70167 9.72824 4.71581C10.7191 4.73593 11.7095 4.77175 12.7003 4.79012C13.9029 4.81251 15.1047 4.73573 16.3079 4.74698C16.8878 4.75234 17.4629 4.76225 17.9707 5.08415C18.4651 5.39748 18.8413 5.92589 18.9826 6.5027C19.12 7.06352 19.0876 7.69369 19.1516 8.26927C19.2236 8.91626 19.2572 9.5615 19.2561 10.2126C19.2597 11.5237 19.1879 12.8359 19.1461 14.146Z" fill="url(#paint4_linear_2_1646)"/>
</g>
<rect x="1" y="1" width="22" height="22" rx="11" stroke="url(#paint5_linear_2_1646)" stroke-width="2"/>
<defs>
<linearGradient id="paint0_linear_2_1646" x1="-0.193462" y1="4.92481" x2="21.2363" y2="8.16126" gradientUnits="userSpaceOnUse">
<stop stop-color="#fd01a7"/>
<stop offset="1" stop-color="#8247e5"/>
</linearGradient>
<linearGradient id="paint1_linear_2_1646" x1="7.82711" y1="11.2881" x2="11.3738" y2="11.7637" gradientUnits="userSpaceOnUse">
<stop stop-color="#fd01a7"/>
<stop offset="1" stop-color="#8247e5"/>
</linearGradient>
<linearGradient id="paint2_linear_2_1646" x1="1.04878" y1="6.92383" x2="20.2344" y2="10.7692" gradientUnits="userSpaceOnUse">
<stop stop-color="#fd01a7"/>
<stop offset="1" stop-color="#8247e5"/>
</linearGradient>
<linearGradient id="paint3_linear_2_1646" x1="11.7278" y1="11.3179" x2="15.4017" y2="11.8337" gradientUnits="userSpaceOnUse">
<stop stop-color="#fd01a7"/>
<stop offset="1" stop-color="#8247e5"/>
</linearGradient>
<linearGradient id="paint4_linear_2_1646" x1="-1.06561" y1="4" x2="22.1615" y2="7.48623" gradientUnits="userSpaceOnUse">
<stop stop-color="#fd01a7"/>
<stop offset="1" stop-color="#8247e5"/>
</linearGradient>
<linearGradient id="paint5_linear_2_1646" x1="-7.71429" y1="7.87728e-07" x2="27.6429" y2="5.35714" gradientUnits="userSpaceOnUse">
<stop stop-color="#fd01a7"/>
<stop offset="1" stop-color="#8247e5"/>
</linearGradient>
<clipPath id="clip0_2_1646">
<rect width="24" height="24" rx="12" fill="white"/>
</clipPath>
</defs>
</svg>
