<svg width="101" height="100" viewBox="0 0 101 100" fill="none" xmlns="http://www.w3.org/2000/svg">
<g clip-path="url(#clip0_2_1470)">
<path d="M18.8604 81.793H33.5344C34.9469 77.4901 36.8929 75.4525 38.3716 74.5015C39.0703 74.0454 39.7284 73.7887 40.2871 73.6471C39.3835 71.9889 38.8576 69.978 38.8576 67.82C38.8576 62.3166 42.3307 57.6078 46.8524 57.6078C49.1058 57.6078 51.115 58.7967 52.5451 60.6502C53.9749 62.5032 54.8465 65.0408 54.8465 67.82C54.8465 69.9783 54.3207 71.9892 53.4171 73.6474C53.9783 73.7896 54.6377 74.0475 55.3399 74.5063M18.8604 81.793L55.0674 74.9255M18.8604 81.793V53.4797H73.4577V60.3109M18.8604 81.793L73.4577 60.3109M55.3399 74.5063C55.3403 74.5065 55.3406 74.5067 55.341 74.507L55.0674 74.9255M55.3399 74.5063C55.3397 74.5061 55.3394 74.506 55.3392 74.5058L55.0674 74.9255M55.3399 74.5063C56.7406 75.4135 57.9811 76.9188 58.9484 78.8215L58.949 78.8227C59.4013 79.718 59.8025 80.7116 60.1595 81.793M55.0674 74.9255C56.3737 75.7713 57.5622 77.1982 58.5027 79.0481C58.9887 80.0101 59.4171 81.0954 59.7956 82.293M60.1595 81.793H59.7956V82.293M60.1595 81.793H61.1137C61.174 81.6952 61.2369 81.5946 61.2993 81.5003C63.3044 78.4577 65.3197 77.1845 66.5323 76.6604C66.2184 76.2155 65.9346 75.7318 65.6847 75.212L65.6846 75.2119C64.6174 72.9895 64.287 70.3729 64.742 67.8404L64.742 67.8404C65.5337 63.435 68.5642 60.1923 72.262 60.1923C72.6617 60.1923 73.062 60.2319 73.4577 60.3109M60.1595 81.793C60.1977 81.9085 60.2353 82.0249 60.2724 82.1423L59.7956 82.293M59.7956 82.293H61.393C61.4263 82.2396 61.4594 82.1856 61.4925 82.1316C61.5665 82.0111 61.6405 81.8905 61.7167 81.7756C63.7312 78.7187 65.7334 77.5274 66.8407 77.073L73.4577 60.3109M67.0139 76.4741C66.6876 76.025 66.3929 75.5313 66.1354 74.9954C65.1161 72.8729 64.7967 70.3636 65.2341 67.9288L67.0139 76.4741ZM52.6225 74.0097C52.7828 74.0274 52.9618 74.0556 53.1563 74.0992L52.9034 73.5427C52.8134 73.7021 52.7197 73.8579 52.6225 74.0097Z" fill="url(#paint0_linear_2_1470)" stroke="url(#paint1_linear_2_1470)"/>
<mask id="path-2-inside-1_2_1470" fill="white">
<path d="M79.6814 51.2138V49.4479V39.9123H71.3009V35.6488C72.3384 35.475 73.1405 34.3286 73.1405 32.9371C73.1405 31.4256 72.1951 30.2001 71.0283 30.2001C69.8622 30.2001 68.9162 31.4256 68.9162 32.9371C68.9162 34.3286 69.7183 35.4754 70.7558 35.6488V39.9123H66.1227V35.6488C67.1602 35.475 67.9623 34.3286 67.9623 32.9371C67.9623 31.4256 67.0169 30.2001 65.8501 30.2001C64.684 30.2001 63.738 31.4256 63.738 32.9371C63.738 34.3286 64.5401 35.4754 65.5776 35.6488V39.9123H61.1756V15.5434H59.5856V13.7334H52.6812V15.5434H51.0918V39.9123H49.3655V15.5434H47.7756V13.7334H40.8711V15.5434H39.2817V39.9123H37.5555V15.5434H35.9655V13.7334H29.0613V15.5434H27.4713V39.9123H23.4705V35.6488C24.5081 35.475 25.3101 34.3286 25.3101 32.9371C25.3101 31.4256 24.3647 30.2001 23.198 30.2001C22.0318 30.2001 21.0858 31.4256 21.0858 32.9371C21.0858 34.3286 21.8879 35.4754 22.9255 35.6488V39.9123H14.5V49.4479V51.2138H79.6814ZM52.6812 18.722H59.5856V20.3702H52.6812V18.722ZM52.6812 21.9888H59.5856V23.6371H52.6812V21.9888ZM52.6812 25.2556H59.5856V26.9042H52.6812V25.2556ZM52.6812 28.5228H59.5856V30.1711H52.6812V28.5228ZM52.6812 31.7897H59.5856V33.4379H52.6812V31.7897ZM52.6812 36.6603H59.5856V39.9123H52.6812V36.6603ZM40.8711 18.722H47.7756V20.3702H40.8711V18.722ZM40.8711 21.9888H47.7756V23.6371H40.8711V21.9888ZM40.8711 25.2556H47.7756V26.9042H40.8711V25.2556ZM40.8711 28.5228H47.7756V30.1711H40.8711V28.5228ZM40.8711 31.7897H47.7756V33.4379H40.8711V31.7897ZM40.8711 36.6603H47.7756V39.9123H40.8711V36.6603ZM29.0613 18.722H35.9652V20.3702H29.0613V18.722ZM29.0613 21.9888H35.9652V23.6371H29.0613V21.9888ZM29.0613 25.2556H35.9652V26.9042H29.0613V25.2556ZM29.0613 28.5228H35.9652V30.1711H29.0613V28.5228ZM29.0613 31.7897H35.9652V33.4379H29.0613V31.7897ZM29.0613 36.6603H35.9652V39.9123H29.0613V36.6603Z"/>
</mask>
<path d="M79.6814 51.2138V49.4479V39.9123H71.3009V35.6488C72.3384 35.475 73.1405 34.3286 73.1405 32.9371C73.1405 31.4256 72.1951 30.2001 71.0283 30.2001C69.8622 30.2001 68.9162 31.4256 68.9162 32.9371C68.9162 34.3286 69.7183 35.4754 70.7558 35.6488V39.9123H66.1227V35.6488C67.1602 35.475 67.9623 34.3286 67.9623 32.9371C67.9623 31.4256 67.0169 30.2001 65.8501 30.2001C64.684 30.2001 63.738 31.4256 63.738 32.9371C63.738 34.3286 64.5401 35.4754 65.5776 35.6488V39.9123H61.1756V15.5434H59.5856V13.7334H52.6812V15.5434H51.0918V39.9123H49.3655V15.5434H47.7756V13.7334H40.8711V15.5434H39.2817V39.9123H37.5555V15.5434H35.9655V13.7334H29.0613V15.5434H27.4713V39.9123H23.4705V35.6488C24.5081 35.475 25.3101 34.3286 25.3101 32.9371C25.3101 31.4256 24.3647 30.2001 23.198 30.2001C22.0318 30.2001 21.0858 31.4256 21.0858 32.9371C21.0858 34.3286 21.8879 35.4754 22.9255 35.6488V39.9123H14.5V49.4479V51.2138H79.6814ZM52.6812 18.722H59.5856V20.3702H52.6812V18.722ZM52.6812 21.9888H59.5856V23.6371H52.6812V21.9888ZM52.6812 25.2556H59.5856V26.9042H52.6812V25.2556ZM52.6812 28.5228H59.5856V30.1711H52.6812V28.5228ZM52.6812 31.7897H59.5856V33.4379H52.6812V31.7897ZM52.6812 36.6603H59.5856V39.9123H52.6812V36.6603ZM40.8711 18.722H47.7756V20.3702H40.8711V18.722ZM40.8711 21.9888H47.7756V23.6371H40.8711V21.9888ZM40.8711 25.2556H47.7756V26.9042H40.8711V25.2556ZM40.8711 28.5228H47.7756V30.1711H40.8711V28.5228ZM40.8711 31.7897H47.7756V33.4379H40.8711V31.7897ZM40.8711 36.6603H47.7756V39.9123H40.8711V36.6603ZM29.0613 18.722H35.9652V20.3702H29.0613V18.722ZM29.0613 21.9888H35.9652V23.6371H29.0613V21.9888ZM29.0613 25.2556H35.9652V26.9042H29.0613V25.2556ZM29.0613 28.5228H35.9652V30.1711H29.0613V28.5228ZM29.0613 31.7897H35.9652V33.4379H29.0613V31.7897ZM29.0613 36.6603H35.9652V39.9123H29.0613V36.6603Z" fill="url(#paint2_linear_2_1470)" stroke="url(#paint3_linear_2_1470)" stroke-width="2" mask="url(#path-2-inside-1_2_1470)"/>
<path d="M52.4843 67.8197C52.4843 70.8532 51.1125 73.4046 49.22 74.5717H44.4842C42.5921 73.4049 41.2202 70.8536 41.2202 67.8197C41.2202 63.5787 43.8546 60.3733 46.8523 60.3733C49.8504 60.3733 52.4843 63.5787 52.4843 67.8197Z" fill="url(#paint4_linear_2_1470)" stroke="url(#paint5_linear_2_1470)"/>
<path d="M72.2634 76.6115L72.2678 76.6115C72.883 76.6142 73.4831 76.6652 74.0412 76.7408C75.6686 75.9779 77.0354 74.1621 77.4801 71.685L77.4801 71.6849C77.8285 69.7451 77.5356 67.8109 76.7897 66.2574C76.0426 64.7013 74.8607 63.562 73.4512 63.1363L72.2634 76.6115ZM72.2634 76.6115C71.6499 76.6142 71.051 76.6652 70.494 76.7403M72.2634 76.6115L70.494 76.7403M70.494 76.7403C67.9965 75.5791 66.3993 72.0574 67.0533 68.4184L70.494 76.7403ZM69.4858 63.9954C68.3191 64.9362 67.4021 66.4783 67.0533 68.4183L69.4858 63.9954ZM69.4858 63.9954C70.6469 63.0591 72.0531 62.7147 73.451 63.1362L69.4858 63.9954Z" fill="url(#paint6_linear_2_1470)" stroke="url(#paint7_linear_2_1470)"/>
<path d="M59.3362 89.0536L60.3024 89.1542C61.2199 86.5865 62.2054 84.6553 63.1682 83.2012L63.1687 83.2004C65.4009 79.814 67.5032 79.1427 67.9547 79.0488L67.9805 79.0434L68.0056 79.0354C68.5006 78.8767 70.3116 78.3258 72.2671 78.3176C74.2221 78.3262 76.0332 78.8767 76.5282 79.0354L76.5534 79.0435L76.5793 79.0489C77.0306 79.1425 79.1336 79.814 81.3655 83.2004L81.3661 83.2012C83.3377 86.1792 85.404 91.1497 86.7816 99.4997H84.1688C82.9771 92.7061 81.3358 88.6353 79.885 86.2321L79.8847 86.2316C79.857 86.1859 79.8208 86.1295 79.7912 86.0833C79.7752 86.0585 79.7612 86.0366 79.7514 86.0209L78.833 86.3601L80.8032 99.4997H63.7311L65.7024 86.3509L64.7838 86.0119C63.2997 88.3883 61.5946 92.4961 60.3655 99.4997H56.6184C56.5836 92.7645 55.9522 88.3733 55.1904 85.6387L55.1902 85.6381C55.0258 85.0505 54.8587 84.5444 54.692 84.1006L53.7239 84.2764V99.5H39.9819V84.2602L39.0141 84.0837C38.062 86.6073 37.1221 91.3074 37.0848 99.5H33.7254C33.7672 91.8746 34.5056 86.808 35.5761 83.3026L35.5764 83.3014C36.6619 79.716 38.1894 77.7783 39.52 76.9234L39.52 76.9234L39.5231 76.9214C40.3997 76.3488 41.1511 76.2459 41.547 76.2473H41.5488C41.6934 76.2473 41.7997 76.2606 41.8642 76.271L41.9037 76.2773H41.9437H51.7623H51.8041L51.8453 76.2704C51.9052 76.2603 52.0099 76.2477 52.1556 76.2477L52.1582 76.2477C52.5537 76.2457 53.3041 76.348 54.1813 76.921L54.183 76.9221C55.0609 77.4905 56.0544 78.5446 56.9187 80.2446C57.9212 82.2294 58.7838 85.0078 59.3362 89.0536Z" fill="url(#paint8_linear_2_1470)" stroke="url(#paint9_linear_2_1470)"/>
</g>
<defs>
<linearGradient id="paint0_linear_2_1470" x1="0.489776" y1="52.9797" x2="77.8853" y2="75.2211" gradientUnits="userSpaceOnUse">
<stop stop-color="#fd01a7"/>
<stop offset="1" stop-color="#8247e5"/>
</linearGradient>
<linearGradient id="paint1_linear_2_1470" x1="0.489776" y1="52.9797" x2="77.8853" y2="75.2211" gradientUnits="userSpaceOnUse">
<stop stop-color="#fd01a7"/>
<stop offset="1" stop-color="#8247e5"/>
</linearGradient>
<linearGradient id="paint2_linear_2_1470" x1="-6.45115" y1="13.7334" x2="85.402" y2="37.9364" gradientUnits="userSpaceOnUse">
<stop stop-color="#fd01a7"/>
<stop offset="1" stop-color="#8247e5"/>
</linearGradient>
<linearGradient id="paint3_linear_2_1470" x1="-6.45115" y1="13.7334" x2="85.402" y2="37.9364" gradientUnits="userSpaceOnUse">
<stop stop-color="#fd01a7"/>
<stop offset="1" stop-color="#8247e5"/>
</linearGradient>
<linearGradient id="paint4_linear_2_1470" x1="36.7782" y1="59.8733" x2="54.9884" y2="62.0997" gradientUnits="userSpaceOnUse">
<stop stop-color="#fd01a7"/>
<stop offset="1" stop-color="#8247e5"/>
</linearGradient>
<linearGradient id="paint5_linear_2_1470" x1="36.7782" y1="59.8733" x2="54.9884" y2="62.0997" gradientUnits="userSpaceOnUse">
<stop stop-color="#fd01a7"/>
<stop offset="1" stop-color="#8247e5"/>
</linearGradient>
<linearGradient id="paint6_linear_2_1470" x1="62.6405" y1="62.4583" x2="80.0505" y2="64.5473" gradientUnits="userSpaceOnUse">
<stop stop-color="#fd01a7"/>
<stop offset="1" stop-color="#8247e5"/>
</linearGradient>
<linearGradient id="paint7_linear_2_1470" x1="62.6405" y1="62.4583" x2="80.0505" y2="64.5473" gradientUnits="userSpaceOnUse">
<stop stop-color="#fd01a7"/>
<stop offset="1" stop-color="#8247e5"/>
</linearGradient>
<linearGradient id="paint8_linear_2_1470" x1="15.8198" y1="75.7473" x2="89.0405" y2="100.515" gradientUnits="userSpaceOnUse">
<stop stop-color="#fd01a7"/>
<stop offset="1" stop-color="#8247e5"/>
</linearGradient>
<linearGradient id="paint9_linear_2_1470" x1="15.8198" y1="75.7473" x2="89.0405" y2="100.515" gradientUnits="userSpaceOnUse">
<stop stop-color="#fd01a7"/>
<stop offset="1" stop-color="#8247e5"/>
</linearGradient>
<clipPath id="clip0_2_1470">
<rect width="100" height="100" fill="white" transform="translate(0.5)"/>
</clipPath>
</defs>
</svg>
