<svg width="24" height="24" viewBox="0 0 24 24" fill="none" xmlns="http://www.w3.org/2000/svg">
<path d="M5.87513 7.56251C7.03013 6.74251 17.6333 6.72876 18.3864 7.77376C19.1395 8.81876 19.2333 15.8931 18.0239 16.4681C16.8145 17.0431 6.8345 17.4113 5.87513 16.375C4.91575 15.3388 4.6495 8.43751 5.87513 7.56251Z" fill="#191919"/>
<path d="M11.0863 17.5319C6.26438 17.5319 5.70063 16.9232 5.50875 16.7194C4.63563 15.7751 4.41 11.9757 4.6375 9.77382C4.78313 8.36257 5.09375 7.50632 5.58563 7.15694C5.8125 6.99632 6.32563 6.76444 8.16875 6.60632C9.33625 6.50632 10.7988 6.45819 12.2856 6.47069C13.8169 6.48382 15.255 6.56194 16.335 6.69007C18.1519 6.90569 18.5963 7.21257 18.7919 7.48319C19.2663 8.14069 19.3956 10.0119 19.4313 11.0688C19.4894 12.8119 19.3638 14.4751 19.0963 15.5182C18.8975 16.2919 18.625 16.7376 18.2388 16.9213C17.4044 17.3182 13.9681 17.5007 11.8638 17.5269C11.5925 17.5303 11.3333 17.5319 11.0863 17.5319ZM6.165 7.96944C6.15 7.98257 5.80063 8.25007 5.63188 9.87507C5.51625 10.9938 5.52813 12.4151 5.66313 13.6776C5.82875 15.2251 6.105 15.8876 6.24125 16.0351C6.49125 16.2576 8.21875 16.5757 11.9288 16.5244C15.1494 16.4801 17.4031 16.2032 17.8038 16.0188C17.8244 16.0026 18.0481 15.8038 18.2319 14.7763C18.4194 13.7294 18.4881 12.2294 18.4194 10.7651C18.3419 9.15944 18.125 8.29194 17.9919 8.08132C17.6981 7.85194 15.8638 7.48819 12.1056 7.46819C8.56875 7.44944 6.47 7.75694 6.16813 7.96819L6.165 7.96944Z" fill="#191919"/>
<path d="M5.87513 7.56251C7.03013 6.74251 17.6333 6.72876 18.3864 7.77376C19.1395 8.81876 19.2333 15.8931 18.0239 16.4681C16.8145 17.0431 6.8345 17.4113 5.87513 16.375C4.91575 15.3388 4.6495 8.43751 5.87513 7.56251Z" fill="url(#paint0_linear_2_1662)"/>
<path d="M11.0774 14.3297C11.0773 14.3299 11.0761 14.3267 11.074 14.3191C11.0764 14.3256 11.0775 14.3294 11.0774 14.3297ZM11.0162 13.897C11.0088 13.8166 11.0016 13.7278 10.9949 13.6316C10.9634 13.1815 10.9428 12.5978 10.9391 12.0128C10.9353 11.4266 10.9486 10.8505 10.9829 10.413C10.9913 10.3054 11.0007 10.2097 11.0109 10.1266C11.0713 10.1525 11.1384 10.183 11.212 10.2182C11.5768 10.3928 12.0429 10.6546 12.5055 10.9407C12.9678 11.2267 13.4129 11.5285 13.7372 11.7799C13.8308 11.8525 13.9104 11.9178 13.9756 11.9749C13.9028 12.0394 13.8126 12.114 13.706 12.1973C13.3645 12.4639 12.8993 12.7848 12.4218 13.0884C11.9441 13.3921 11.4672 13.67 11.104 13.8535C11.0735 13.8689 11.0442 13.8834 11.0162 13.897ZM14.1542 11.7953C14.1537 11.796 14.1531 11.797 14.1522 11.7982C14.1576 11.7888 14.1596 11.7875 14.1542 11.7953ZM11.0691 9.81535C11.0727 9.80634 11.0727 9.80903 11.0677 9.81926C11.0683 9.81749 11.0688 9.81619 11.0691 9.81535Z" fill="#FFFEFD" stroke="#FFFEFD"/>
<rect x="1" y="1" width="22" height="22" rx="11" stroke="url(#paint1_linear_2_1662)" stroke-width="2"/>
<defs>
<linearGradient id="paint0_linear_2_1662" x1="0.58751" y1="6.9668" x2="20.6455" y2="11.1621" gradientUnits="userSpaceOnUse">
<stop stop-color="#fd01a7"/>
<stop offset="1" stop-color="#8247e5"/>
</linearGradient>
<linearGradient id="paint1_linear_2_1662" x1="-7.71429" y1="7.87728e-07" x2="27.6429" y2="5.35714" gradientUnits="userSpaceOnUse">
<stop stop-color="#fd01a7"/>
<stop offset="1" stop-color="#8247e5"/>
</linearGradient>
</defs>
</svg>
